<mxfile host="65bd71144e">
    <diagram id="-RucH7jH6c9matsVI8PS" name="Page-1">
        <mxGraphModel dx="1332" dy="2126" grid="1" gridSize="10" guides="1" tooltips="1" connect="1" arrows="1" fold="1" page="1" pageScale="1" pageWidth="827" pageHeight="1169" math="0" shadow="0">
            <root>
                <mxCell id="0"/>
                <mxCell id="1" parent="0"/>
                <mxCell id="498" value="" style="rounded=0;whiteSpace=wrap;html=1;" vertex="1" parent="1">
                    <mxGeometry x="12" y="-1098" width="1460" height="800" as="geometry"/>
                </mxCell>
                <mxCell id="490" value="" style="rounded=1;whiteSpace=wrap;html=1;fillColor=#6d8764;strokeColor=none;fontColor=#ffffff;arcSize=0;rotation=90;" parent="1" vertex="1">
                    <mxGeometry x="1107.75" y="-1098" width="12.25" height="582" as="geometry"/>
                </mxCell>
                <mxCell id="491" value="" style="rounded=1;whiteSpace=wrap;html=1;fillColor=#6d8764;strokeColor=none;fontColor=#ffffff;arcSize=0;rotation=90;" parent="1" vertex="1">
                    <mxGeometry x="1107.75" y="-1018" width="12.25" height="582" as="geometry"/>
                </mxCell>
                <mxCell id="492" value="" style="rounded=1;whiteSpace=wrap;html=1;fillColor=#6d8764;strokeColor=none;fontColor=#ffffff;arcSize=0;rotation=90;" parent="1" vertex="1">
                    <mxGeometry x="1107.75" y="-942" width="12.25" height="582" as="geometry"/>
                </mxCell>
                <mxCell id="493" value="" style="rounded=1;whiteSpace=wrap;html=1;fillColor=#6d8764;strokeColor=none;fontColor=#ffffff;arcSize=0;rotation=90;" parent="1" vertex="1">
                    <mxGeometry x="1107.75" y="-866" width="12.25" height="582" as="geometry"/>
                </mxCell>
                <mxCell id="494" value="" style="rounded=1;whiteSpace=wrap;html=1;fillColor=#6d8764;strokeColor=none;fontColor=#ffffff;arcSize=0;rotation=90;" parent="1" vertex="1">
                    <mxGeometry x="1107.75" y="-790" width="12.25" height="582" as="geometry"/>
                </mxCell>
                <mxCell id="495" value="" style="rounded=1;whiteSpace=wrap;html=1;fillColor=#6d8764;strokeColor=none;fontColor=#ffffff;arcSize=0;rotation=90;" parent="1" vertex="1">
                    <mxGeometry x="1107.75" y="-714" width="12.25" height="582" as="geometry"/>
                </mxCell>
                <mxCell id="496" value="" style="rounded=1;whiteSpace=wrap;html=1;fillColor=#6d8764;strokeColor=none;fontColor=#ffffff;arcSize=0;rotation=90;" parent="1" vertex="1">
                    <mxGeometry x="1107.75" y="-639" width="12.25" height="582" as="geometry"/>
                </mxCell>
                <mxCell id="481" value="" style="rounded=1;whiteSpace=wrap;html=1;fillColor=#6d8764;strokeColor=none;fontColor=#ffffff;arcSize=0;rotation=90;" parent="1" vertex="1">
                    <mxGeometry x="357.75" y="-1169" width="12.25" height="582" as="geometry"/>
                </mxCell>
                <mxCell id="482" value="" style="rounded=1;whiteSpace=wrap;html=1;fillColor=#6d8764;strokeColor=none;fontColor=#ffffff;arcSize=0;rotation=90;" parent="1" vertex="1">
                    <mxGeometry x="357.75" y="-1249" width="12.25" height="582" as="geometry"/>
                </mxCell>
                <mxCell id="483" value="" style="rounded=1;whiteSpace=wrap;html=1;fillColor=#6d8764;strokeColor=none;fontColor=#ffffff;arcSize=0;rotation=90;" parent="1" vertex="1">
                    <mxGeometry x="357.75" y="-1093" width="12.25" height="582" as="geometry"/>
                </mxCell>
                <mxCell id="484" value="" style="rounded=1;whiteSpace=wrap;html=1;fillColor=#6d8764;strokeColor=none;fontColor=#ffffff;arcSize=0;rotation=90;" parent="1" vertex="1">
                    <mxGeometry x="357.75" y="-1017" width="12.25" height="582" as="geometry"/>
                </mxCell>
                <mxCell id="485" value="" style="rounded=1;whiteSpace=wrap;html=1;fillColor=#6d8764;strokeColor=none;fontColor=#ffffff;arcSize=0;rotation=90;" parent="1" vertex="1">
                    <mxGeometry x="357.75" y="-941" width="12.25" height="582" as="geometry"/>
                </mxCell>
                <mxCell id="486" value="" style="rounded=1;whiteSpace=wrap;html=1;fillColor=#6d8764;strokeColor=none;fontColor=#ffffff;arcSize=0;rotation=90;" parent="1" vertex="1">
                    <mxGeometry x="357.75" y="-865" width="12.25" height="582" as="geometry"/>
                </mxCell>
                <mxCell id="487" value="" style="rounded=1;whiteSpace=wrap;html=1;fillColor=#6d8764;strokeColor=none;fontColor=#ffffff;arcSize=0;rotation=90;" parent="1" vertex="1">
                    <mxGeometry x="357.75" y="-788" width="12.25" height="582" as="geometry"/>
                </mxCell>
                <mxCell id="488" value="" style="rounded=1;whiteSpace=wrap;html=1;fillColor=#6d8764;strokeColor=none;fontColor=#ffffff;arcSize=0;rotation=90;" parent="1" vertex="1">
                    <mxGeometry x="357.75" y="-713" width="12.25" height="582" as="geometry"/>
                </mxCell>
                <mxCell id="489" value="" style="rounded=1;whiteSpace=wrap;html=1;fillColor=#6d8764;strokeColor=none;fontColor=#ffffff;arcSize=0;rotation=90;" parent="1" vertex="1">
                    <mxGeometry x="357.75" y="-637" width="12.25" height="582" as="geometry"/>
                </mxCell>
                <mxCell id="390" value="" style="rounded=1;whiteSpace=wrap;html=1;fillColor=#6d8764;strokeColor=none;fontColor=#ffffff;arcSize=0;" parent="1" vertex="1">
                    <mxGeometry x="173.88" y="-1030" width="12.25" height="690" as="geometry"/>
                </mxCell>
                <mxCell id="392" value="" style="rounded=1;whiteSpace=wrap;html=1;fillColor=#6d8764;strokeColor=none;fontColor=#ffffff;arcSize=0;" parent="1" vertex="1">
                    <mxGeometry x="293.87" y="-1040" width="12.25" height="700" as="geometry"/>
                </mxCell>
                <mxCell id="393" value="" style="rounded=1;whiteSpace=wrap;html=1;fillColor=#6d8764;strokeColor=none;fontColor=#ffffff;arcSize=0;" parent="1" vertex="1">
                    <mxGeometry x="414.87" y="-1040" width="12.25" height="690" as="geometry"/>
                </mxCell>
                <mxCell id="394" value="" style="rounded=1;whiteSpace=wrap;html=1;fillColor=#6d8764;strokeColor=none;fontColor=#ffffff;arcSize=0;" parent="1" vertex="1">
                    <mxGeometry x="534.87" y="-1040" width="12.25" height="700" as="geometry"/>
                </mxCell>
                <mxCell id="395" value="" style="rounded=1;whiteSpace=wrap;html=1;fillColor=#6d8764;strokeColor=none;fontColor=#ffffff;arcSize=0;" parent="1" vertex="1">
                    <mxGeometry x="654.88" y="-1040" width="12.25" height="690" as="geometry"/>
                </mxCell>
                <mxCell id="164" value="" style="rounded=1;whiteSpace=wrap;html=1;strokeWidth=3;" parent="1" vertex="1">
                    <mxGeometry x="130" y="-988" width="100" height="60" as="geometry"/>
                </mxCell>
                <mxCell id="165" value="" style="rounded=1;whiteSpace=wrap;html=1;strokeWidth=3;" parent="1" vertex="1">
                    <mxGeometry x="250" y="-988" width="100" height="60" as="geometry"/>
                </mxCell>
                <mxCell id="166" value="" style="rounded=1;whiteSpace=wrap;html=1;strokeWidth=3;" parent="1" vertex="1">
                    <mxGeometry x="370" y="-988" width="100" height="60" as="geometry"/>
                </mxCell>
                <mxCell id="167" value="" style="rounded=1;whiteSpace=wrap;html=1;strokeWidth=3;" parent="1" vertex="1">
                    <mxGeometry x="490" y="-988" width="100" height="60" as="geometry"/>
                </mxCell>
                <mxCell id="168" value="" style="rounded=1;whiteSpace=wrap;html=1;strokeWidth=3;" parent="1" vertex="1">
                    <mxGeometry x="610" y="-988" width="100" height="60" as="geometry"/>
                </mxCell>
                <mxCell id="169" value="" style="rounded=1;whiteSpace=wrap;html=1;strokeWidth=3;fillColor=#000000;" parent="1" vertex="1">
                    <mxGeometry x="130" y="-908" width="100" height="60" as="geometry"/>
                </mxCell>
                <mxCell id="170" value="" style="rounded=1;whiteSpace=wrap;html=1;strokeWidth=3;fillColor=#000000;" parent="1" vertex="1">
                    <mxGeometry x="250" y="-908" width="100" height="60" as="geometry"/>
                </mxCell>
                <mxCell id="171" value="" style="rounded=1;whiteSpace=wrap;html=1;strokeWidth=3;fillColor=#000000;" parent="1" vertex="1">
                    <mxGeometry x="370" y="-908" width="100" height="60" as="geometry"/>
                </mxCell>
                <mxCell id="172" value="" style="rounded=1;whiteSpace=wrap;html=1;strokeWidth=3;fillColor=#000000;" parent="1" vertex="1">
                    <mxGeometry x="490" y="-908" width="100" height="60" as="geometry"/>
                </mxCell>
                <mxCell id="173" value="" style="rounded=1;whiteSpace=wrap;html=1;strokeWidth=3;fillColor=#000000;" parent="1" vertex="1">
                    <mxGeometry x="610" y="-908" width="100" height="60" as="geometry"/>
                </mxCell>
                <mxCell id="174" value="" style="rounded=1;whiteSpace=wrap;html=1;strokeWidth=3;strokeColor=#000000;fillColor=#000000;" parent="1" vertex="1">
                    <mxGeometry x="130" y="-832" width="100" height="60" as="geometry"/>
                </mxCell>
                <mxCell id="175" value="" style="rounded=1;whiteSpace=wrap;html=1;strokeWidth=3;" parent="1" vertex="1">
                    <mxGeometry x="250" y="-832" width="100" height="60" as="geometry"/>
                </mxCell>
                <mxCell id="176" value="" style="rounded=1;whiteSpace=wrap;html=1;strokeWidth=3;" parent="1" vertex="1">
                    <mxGeometry x="370" y="-832" width="100" height="60" as="geometry"/>
                </mxCell>
                <mxCell id="177" value="" style="rounded=1;whiteSpace=wrap;html=1;strokeWidth=3;" parent="1" vertex="1">
                    <mxGeometry x="490" y="-832" width="100" height="60" as="geometry"/>
                </mxCell>
                <mxCell id="178" value="" style="rounded=1;whiteSpace=wrap;html=1;strokeWidth=3;" parent="1" vertex="1">
                    <mxGeometry x="610" y="-832" width="100" height="60" as="geometry"/>
                </mxCell>
                <mxCell id="179" value="" style="rounded=1;whiteSpace=wrap;html=1;strokeWidth=3;" parent="1" vertex="1">
                    <mxGeometry x="130" y="-756" width="100" height="60" as="geometry"/>
                </mxCell>
                <mxCell id="180" value="" style="rounded=1;whiteSpace=wrap;html=1;strokeWidth=3;fillColor=#000000;" parent="1" vertex="1">
                    <mxGeometry x="250" y="-756" width="100" height="60" as="geometry"/>
                </mxCell>
                <mxCell id="181" value="" style="rounded=1;whiteSpace=wrap;html=1;strokeWidth=3;" parent="1" vertex="1">
                    <mxGeometry x="370" y="-756" width="100" height="60" as="geometry"/>
                </mxCell>
                <mxCell id="182" value="" style="rounded=1;whiteSpace=wrap;html=1;strokeWidth=3;" parent="1" vertex="1">
                    <mxGeometry x="490" y="-756" width="100" height="60" as="geometry"/>
                </mxCell>
                <mxCell id="183" value="" style="rounded=1;whiteSpace=wrap;html=1;strokeWidth=3;" parent="1" vertex="1">
                    <mxGeometry x="610" y="-756" width="100" height="60" as="geometry"/>
                </mxCell>
                <mxCell id="184" value="" style="rounded=1;whiteSpace=wrap;html=1;strokeWidth=3;" parent="1" vertex="1">
                    <mxGeometry x="130" y="-680" width="100" height="60" as="geometry"/>
                </mxCell>
                <mxCell id="185" value="" style="rounded=1;whiteSpace=wrap;html=1;strokeWidth=3;" parent="1" vertex="1">
                    <mxGeometry x="250" y="-680" width="100" height="60" as="geometry"/>
                </mxCell>
                <mxCell id="186" value="" style="rounded=1;whiteSpace=wrap;html=1;strokeWidth=3;fillColor=#000000;" parent="1" vertex="1">
                    <mxGeometry x="370" y="-680" width="100" height="60" as="geometry"/>
                </mxCell>
                <mxCell id="187" value="" style="rounded=1;whiteSpace=wrap;html=1;strokeWidth=3;" parent="1" vertex="1">
                    <mxGeometry x="490" y="-680" width="100" height="60" as="geometry"/>
                </mxCell>
                <mxCell id="188" value="" style="rounded=1;whiteSpace=wrap;html=1;strokeWidth=3;" parent="1" vertex="1">
                    <mxGeometry x="610" y="-680" width="100" height="60" as="geometry"/>
                </mxCell>
                <mxCell id="189" value="" style="rounded=1;whiteSpace=wrap;html=1;strokeWidth=3;" parent="1" vertex="1">
                    <mxGeometry x="130" y="-604" width="100" height="60" as="geometry"/>
                </mxCell>
                <mxCell id="190" value="" style="rounded=1;whiteSpace=wrap;html=1;strokeWidth=3;" parent="1" vertex="1">
                    <mxGeometry x="250" y="-604" width="100" height="60" as="geometry"/>
                </mxCell>
                <mxCell id="191" value="" style="rounded=1;whiteSpace=wrap;html=1;strokeWidth=3;" parent="1" vertex="1">
                    <mxGeometry x="370" y="-604" width="100" height="60" as="geometry"/>
                </mxCell>
                <mxCell id="192" value="" style="rounded=1;whiteSpace=wrap;html=1;strokeWidth=3;fillColor=#000000;" parent="1" vertex="1">
                    <mxGeometry x="490" y="-604" width="100" height="60" as="geometry"/>
                </mxCell>
                <mxCell id="193" value="" style="rounded=1;whiteSpace=wrap;html=1;strokeWidth=3;" parent="1" vertex="1">
                    <mxGeometry x="610" y="-604" width="100" height="60" as="geometry"/>
                </mxCell>
                <mxCell id="194" value="" style="rounded=1;whiteSpace=wrap;html=1;strokeWidth=3;" parent="1" vertex="1">
                    <mxGeometry x="130" y="-527" width="100" height="60" as="geometry"/>
                </mxCell>
                <mxCell id="195" value="" style="rounded=1;whiteSpace=wrap;html=1;strokeWidth=3;" parent="1" vertex="1">
                    <mxGeometry x="250" y="-527" width="100" height="60" as="geometry"/>
                </mxCell>
                <mxCell id="196" value="" style="rounded=1;whiteSpace=wrap;html=1;strokeWidth=3;" parent="1" vertex="1">
                    <mxGeometry x="370" y="-527" width="100" height="60" as="geometry"/>
                </mxCell>
                <mxCell id="197" value="" style="rounded=1;whiteSpace=wrap;html=1;strokeWidth=3;" parent="1" vertex="1">
                    <mxGeometry x="490" y="-527" width="100" height="60" as="geometry"/>
                </mxCell>
                <mxCell id="198" value="" style="rounded=1;whiteSpace=wrap;html=1;strokeWidth=3;fillColor=#000000;" parent="1" vertex="1">
                    <mxGeometry x="610" y="-527" width="100" height="60" as="geometry"/>
                </mxCell>
                <mxCell id="199" value="" style="rounded=1;whiteSpace=wrap;html=1;strokeWidth=3;" parent="1" vertex="1">
                    <mxGeometry x="130" y="-452" width="100" height="60" as="geometry"/>
                </mxCell>
                <mxCell id="200" value="" style="rounded=1;whiteSpace=wrap;html=1;strokeWidth=3;" parent="1" vertex="1">
                    <mxGeometry x="250" y="-452" width="100" height="60" as="geometry"/>
                </mxCell>
                <mxCell id="201" value="" style="rounded=1;whiteSpace=wrap;html=1;strokeWidth=3;" parent="1" vertex="1">
                    <mxGeometry x="370" y="-452" width="100" height="60" as="geometry"/>
                </mxCell>
                <mxCell id="202" value="" style="rounded=1;whiteSpace=wrap;html=1;strokeWidth=3;fillColor=#000000;" parent="1" vertex="1">
                    <mxGeometry x="490" y="-452" width="100" height="60" as="geometry"/>
                </mxCell>
                <mxCell id="203" value="" style="rounded=1;whiteSpace=wrap;html=1;strokeWidth=3;fillColor=#000000;" parent="1" vertex="1">
                    <mxGeometry x="610" y="-452" width="100" height="60" as="geometry"/>
                </mxCell>
                <mxCell id="204" value="" style="rounded=1;whiteSpace=wrap;html=1;strokeWidth=3;" parent="1" vertex="1">
                    <mxGeometry x="130" y="-376" width="100" height="60" as="geometry"/>
                </mxCell>
                <mxCell id="205" value="" style="rounded=1;whiteSpace=wrap;html=1;strokeWidth=3;" parent="1" vertex="1">
                    <mxGeometry x="250" y="-376" width="100" height="60" as="geometry"/>
                </mxCell>
                <mxCell id="206" value="" style="rounded=1;whiteSpace=wrap;html=1;strokeWidth=3;fillColor=#000000;" parent="1" vertex="1">
                    <mxGeometry x="370" y="-376" width="100" height="60" as="geometry"/>
                </mxCell>
                <mxCell id="207" value="" style="rounded=1;whiteSpace=wrap;html=1;strokeWidth=3;fillColor=#000000;" parent="1" vertex="1">
                    <mxGeometry x="490" y="-376" width="100" height="60" as="geometry"/>
                </mxCell>
                <mxCell id="208" value="" style="rounded=1;whiteSpace=wrap;html=1;strokeWidth=3;" parent="1" vertex="1">
                    <mxGeometry x="610" y="-376" width="100" height="60" as="geometry"/>
                </mxCell>
                <mxCell id="402" value="S1" style="rounded=1;whiteSpace=wrap;html=1;strokeWidth=3;fontSize=25;fontStyle=1;fillColor=#6d8764;strokeColor=none;fontColor=#ffffff;" parent="1" vertex="1">
                    <mxGeometry x="151" y="-1080" width="60" height="60" as="geometry"/>
                </mxCell>
                <mxCell id="403" value="S2" style="rounded=1;whiteSpace=wrap;html=1;strokeWidth=3;fontSize=25;fontStyle=1;fillColor=#6d8764;strokeColor=none;fontColor=#ffffff;" parent="1" vertex="1">
                    <mxGeometry x="271" y="-1080" width="60" height="60" as="geometry"/>
                </mxCell>
                <mxCell id="404" value="S3" style="rounded=1;whiteSpace=wrap;html=1;strokeWidth=3;fontSize=25;fontStyle=1;fillColor=#6d8764;strokeColor=none;fontColor=#ffffff;" parent="1" vertex="1">
                    <mxGeometry x="391" y="-1080" width="60" height="60" as="geometry"/>
                </mxCell>
                <mxCell id="405" value="S4" style="rounded=1;whiteSpace=wrap;html=1;strokeWidth=3;fontSize=25;fontStyle=1;fillColor=#6d8764;strokeColor=none;fontColor=#ffffff;" parent="1" vertex="1">
                    <mxGeometry x="510" y="-1080" width="60" height="60" as="geometry"/>
                </mxCell>
                <mxCell id="406" value="S5" style="rounded=1;whiteSpace=wrap;html=1;strokeWidth=3;fontSize=25;fontStyle=1;fillColor=#6d8764;strokeColor=none;fontColor=#ffffff;" parent="1" vertex="1">
                    <mxGeometry x="630" y="-1080" width="60" height="60" as="geometry"/>
                </mxCell>
                <mxCell id="407" value="&lt;span style=&quot;color: rgb(0, 0, 0);&quot;&gt;🛑&lt;/span&gt;" style="rounded=1;whiteSpace=wrap;html=1;strokeWidth=3;fontSize=24;fillColor=#d5e8d4;strokeColor=none;" parent="1" vertex="1">
                    <mxGeometry x="30" y="-988" width="60" height="60" as="geometry"/>
                </mxCell>
                <mxCell id="408" value="🛑" style="rounded=1;whiteSpace=wrap;html=1;strokeWidth=3;fontSize=24;fillColor=#d5e8d4;strokeColor=none;" parent="1" vertex="1">
                    <mxGeometry x="30" y="-908" width="60" height="60" as="geometry"/>
                </mxCell>
                <mxCell id="409" value="⬅️" style="rounded=1;whiteSpace=wrap;html=1;strokeWidth=3;fontSize=24;fillColor=#d5e8d4;strokeColor=none;" parent="1" vertex="1">
                    <mxGeometry x="30" y="-832" width="60" height="60" as="geometry"/>
                </mxCell>
                <mxCell id="410" value="↖️" style="rounded=1;whiteSpace=wrap;html=1;strokeWidth=3;fontSize=24;fillColor=#d5e8d4;strokeColor=none;" parent="1" vertex="1">
                    <mxGeometry x="30" y="-756" width="60" height="60" as="geometry"/>
                </mxCell>
                <mxCell id="411" value="⬆️" style="rounded=1;whiteSpace=wrap;html=1;strokeWidth=3;fontSize=24;fillColor=#d5e8d4;strokeColor=none;" parent="1" vertex="1">
                    <mxGeometry x="30" y="-680" width="60" height="60" as="geometry"/>
                </mxCell>
                <mxCell id="413" value="↗️" style="rounded=1;whiteSpace=wrap;html=1;strokeWidth=3;fontSize=24;fillColor=#d5e8d4;strokeColor=none;" parent="1" vertex="1">
                    <mxGeometry x="30" y="-604" width="60" height="60" as="geometry"/>
                </mxCell>
                <mxCell id="414" value="➡️" style="rounded=1;whiteSpace=wrap;html=1;strokeWidth=3;fontSize=24;fillColor=#d5e8d4;strokeColor=none;" parent="1" vertex="1">
                    <mxGeometry x="30" y="-527" width="60" height="60" as="geometry"/>
                </mxCell>
                <mxCell id="415" value="&lt;span style=&quot;color: rgb(0, 0, 0);&quot;&gt;➡️&lt;/span&gt;" style="rounded=1;whiteSpace=wrap;html=1;strokeWidth=3;fontSize=24;fillColor=#d5e8d4;strokeColor=none;" parent="1" vertex="1">
                    <mxGeometry x="30" y="-452" width="60" height="60" as="geometry"/>
                </mxCell>
                <mxCell id="416" value="&lt;span style=&quot;color: rgb(0, 0, 0);&quot;&gt;↗️&lt;/span&gt;" style="rounded=1;whiteSpace=wrap;html=1;strokeWidth=3;fontSize=24;fillColor=#d5e8d4;strokeColor=none;" parent="1" vertex="1">
                    <mxGeometry x="30" y="-376" width="60" height="60" as="geometry"/>
                </mxCell>
                <mxCell id="417" value="" style="rounded=1;whiteSpace=wrap;html=1;fillColor=#6d8764;strokeColor=none;fontColor=#ffffff;arcSize=0;" parent="1" vertex="1">
                    <mxGeometry x="923.88" y="-879" width="12.25" height="530" as="geometry"/>
                </mxCell>
                <mxCell id="418" value="" style="rounded=1;whiteSpace=wrap;html=1;fillColor=#6d8764;strokeColor=none;fontColor=#ffffff;arcSize=0;" parent="1" vertex="1">
                    <mxGeometry x="1043.87" y="-889" width="12.25" height="550" as="geometry"/>
                </mxCell>
                <mxCell id="419" value="" style="rounded=1;whiteSpace=wrap;html=1;fillColor=#6d8764;strokeColor=none;fontColor=#ffffff;arcSize=0;" parent="1" vertex="1">
                    <mxGeometry x="1164.87" y="-889" width="12.25" height="540" as="geometry"/>
                </mxCell>
                <mxCell id="420" value="" style="rounded=1;whiteSpace=wrap;html=1;fillColor=#6d8764;strokeColor=none;fontColor=#ffffff;arcSize=0;" parent="1" vertex="1">
                    <mxGeometry x="1284.87" y="-889" width="12.25" height="550" as="geometry"/>
                </mxCell>
                <mxCell id="421" value="" style="rounded=1;whiteSpace=wrap;html=1;fillColor=#6d8764;strokeColor=none;fontColor=#ffffff;arcSize=0;" parent="1" vertex="1">
                    <mxGeometry x="1404.88" y="-889" width="12.25" height="540" as="geometry"/>
                </mxCell>
                <mxCell id="422" value="" style="rounded=1;whiteSpace=wrap;html=1;strokeWidth=3;" parent="1" vertex="1">
                    <mxGeometry x="880" y="-837" width="100" height="60" as="geometry"/>
                </mxCell>
                <mxCell id="423" value="" style="rounded=1;whiteSpace=wrap;html=1;strokeWidth=3;fillColor=#000000;" parent="1" vertex="1">
                    <mxGeometry x="1000" y="-837" width="100" height="60" as="geometry"/>
                </mxCell>
                <mxCell id="424" value="" style="rounded=1;whiteSpace=wrap;html=1;strokeWidth=3;fillColor=#000000;" parent="1" vertex="1">
                    <mxGeometry x="1120" y="-837" width="100" height="60" as="geometry"/>
                </mxCell>
                <mxCell id="425" value="" style="rounded=1;whiteSpace=wrap;html=1;strokeWidth=3;" parent="1" vertex="1">
                    <mxGeometry x="1240" y="-837" width="100" height="60" as="geometry"/>
                </mxCell>
                <mxCell id="426" value="" style="rounded=1;whiteSpace=wrap;html=1;strokeWidth=3;" parent="1" vertex="1">
                    <mxGeometry x="1360" y="-837" width="100" height="60" as="geometry"/>
                </mxCell>
                <mxCell id="427" value="" style="rounded=1;whiteSpace=wrap;html=1;strokeWidth=3;fillColor=#000000;" parent="1" vertex="1">
                    <mxGeometry x="880" y="-757" width="100" height="60" as="geometry"/>
                </mxCell>
                <mxCell id="428" value="" style="rounded=1;whiteSpace=wrap;html=1;strokeWidth=3;fillColor=#000000;" parent="1" vertex="1">
                    <mxGeometry x="1000" y="-757" width="100" height="60" as="geometry"/>
                </mxCell>
                <mxCell id="429" value="" style="rounded=1;whiteSpace=wrap;html=1;strokeWidth=3;fillColor=#FFFFFF;" parent="1" vertex="1">
                    <mxGeometry x="1120" y="-757" width="100" height="60" as="geometry"/>
                </mxCell>
                <mxCell id="430" value="" style="rounded=1;whiteSpace=wrap;html=1;strokeWidth=3;fillColor=#FFFFFF;" parent="1" vertex="1">
                    <mxGeometry x="1240" y="-757" width="100" height="60" as="geometry"/>
                </mxCell>
                <mxCell id="431" value="" style="rounded=1;whiteSpace=wrap;html=1;strokeWidth=3;fillColor=#FFFFFF;" parent="1" vertex="1">
                    <mxGeometry x="1360" y="-757" width="100" height="60" as="geometry"/>
                </mxCell>
                <mxCell id="432" value="" style="rounded=1;whiteSpace=wrap;html=1;strokeWidth=3;strokeColor=#000000;fillColor=#000000;" parent="1" vertex="1">
                    <mxGeometry x="880" y="-681" width="100" height="60" as="geometry"/>
                </mxCell>
                <mxCell id="433" value="" style="rounded=1;whiteSpace=wrap;html=1;strokeWidth=3;fillColor=#000000;" parent="1" vertex="1">
                    <mxGeometry x="1000" y="-681" width="100" height="60" as="geometry"/>
                </mxCell>
                <mxCell id="434" value="" style="rounded=1;whiteSpace=wrap;html=1;strokeWidth=3;fillColor=#000000;" parent="1" vertex="1">
                    <mxGeometry x="1120" y="-681" width="100" height="60" as="geometry"/>
                </mxCell>
                <mxCell id="435" value="" style="rounded=1;whiteSpace=wrap;html=1;strokeWidth=3;" parent="1" vertex="1">
                    <mxGeometry x="1240" y="-681" width="100" height="60" as="geometry"/>
                </mxCell>
                <mxCell id="436" value="" style="rounded=1;whiteSpace=wrap;html=1;strokeWidth=3;" parent="1" vertex="1">
                    <mxGeometry x="1360" y="-681" width="100" height="60" as="geometry"/>
                </mxCell>
                <mxCell id="437" value="" style="rounded=1;whiteSpace=wrap;html=1;strokeWidth=3;" parent="1" vertex="1">
                    <mxGeometry x="880" y="-605" width="100" height="60" as="geometry"/>
                </mxCell>
                <mxCell id="438" value="" style="rounded=1;whiteSpace=wrap;html=1;strokeWidth=3;fillColor=#000000;" parent="1" vertex="1">
                    <mxGeometry x="1000" y="-605" width="100" height="60" as="geometry"/>
                </mxCell>
                <mxCell id="439" value="" style="rounded=1;whiteSpace=wrap;html=1;strokeWidth=3;fillColor=#000000;" parent="1" vertex="1">
                    <mxGeometry x="1120" y="-605" width="100" height="60" as="geometry"/>
                </mxCell>
                <mxCell id="440" value="" style="rounded=1;whiteSpace=wrap;html=1;strokeWidth=3;fillColor=#000000;" parent="1" vertex="1">
                    <mxGeometry x="1240" y="-605" width="100" height="60" as="geometry"/>
                </mxCell>
                <mxCell id="441" value="" style="rounded=1;whiteSpace=wrap;html=1;strokeWidth=3;" parent="1" vertex="1">
                    <mxGeometry x="1360" y="-605" width="100" height="60" as="geometry"/>
                </mxCell>
                <mxCell id="442" value="" style="rounded=1;whiteSpace=wrap;html=1;strokeWidth=3;" parent="1" vertex="1">
                    <mxGeometry x="880" y="-529" width="100" height="60" as="geometry"/>
                </mxCell>
                <mxCell id="443" value="" style="rounded=1;whiteSpace=wrap;html=1;strokeWidth=3;" parent="1" vertex="1">
                    <mxGeometry x="1000" y="-529" width="100" height="60" as="geometry"/>
                </mxCell>
                <mxCell id="444" value="" style="rounded=1;whiteSpace=wrap;html=1;strokeWidth=3;fillColor=#000000;" parent="1" vertex="1">
                    <mxGeometry x="1120" y="-529" width="100" height="60" as="geometry"/>
                </mxCell>
                <mxCell id="445" value="" style="rounded=1;whiteSpace=wrap;html=1;strokeWidth=3;fillColor=#000000;" parent="1" vertex="1">
                    <mxGeometry x="1240" y="-529" width="100" height="60" as="geometry"/>
                </mxCell>
                <mxCell id="446" value="" style="rounded=1;whiteSpace=wrap;html=1;strokeWidth=3;fillColor=#000000;" parent="1" vertex="1">
                    <mxGeometry x="1360" y="-529" width="100" height="60" as="geometry"/>
                </mxCell>
                <mxCell id="447" value="" style="rounded=1;whiteSpace=wrap;html=1;strokeWidth=3;" parent="1" vertex="1">
                    <mxGeometry x="880" y="-453" width="100" height="60" as="geometry"/>
                </mxCell>
                <mxCell id="448" value="" style="rounded=1;whiteSpace=wrap;html=1;strokeWidth=3;fillColor=#000000;" parent="1" vertex="1">
                    <mxGeometry x="1000" y="-453" width="100" height="60" as="geometry"/>
                </mxCell>
                <mxCell id="449" value="" style="rounded=1;whiteSpace=wrap;html=1;strokeWidth=3;fillColor=#000000;" parent="1" vertex="1">
                    <mxGeometry x="1120" y="-453" width="100" height="60" as="geometry"/>
                </mxCell>
                <mxCell id="450" value="" style="rounded=1;whiteSpace=wrap;html=1;strokeWidth=3;fillColor=#000000;" parent="1" vertex="1">
                    <mxGeometry x="1240" y="-453" width="100" height="60" as="geometry"/>
                </mxCell>
                <mxCell id="451" value="" style="rounded=1;whiteSpace=wrap;html=1;strokeWidth=3;fillColor=#000000;" parent="1" vertex="1">
                    <mxGeometry x="1360" y="-453" width="100" height="60" as="geometry"/>
                </mxCell>
                <mxCell id="452" value="" style="rounded=1;whiteSpace=wrap;html=1;strokeWidth=3;fillColor=#000000;" parent="1" vertex="1">
                    <mxGeometry x="880" y="-376" width="100" height="60" as="geometry"/>
                </mxCell>
                <mxCell id="453" value="" style="rounded=1;whiteSpace=wrap;html=1;strokeWidth=3;fillColor=#000000;" parent="1" vertex="1">
                    <mxGeometry x="1000" y="-376" width="100" height="60" as="geometry"/>
                </mxCell>
                <mxCell id="454" value="" style="rounded=1;whiteSpace=wrap;html=1;strokeWidth=3;fillColor=#000000;" parent="1" vertex="1">
                    <mxGeometry x="1120" y="-376" width="100" height="60" as="geometry"/>
                </mxCell>
                <mxCell id="455" value="" style="rounded=1;whiteSpace=wrap;html=1;strokeWidth=3;fillColor=#000000;" parent="1" vertex="1">
                    <mxGeometry x="1240" y="-376" width="100" height="60" as="geometry"/>
                </mxCell>
                <mxCell id="456" value="" style="rounded=1;whiteSpace=wrap;html=1;strokeWidth=3;fillColor=#FFFFFF;" parent="1" vertex="1">
                    <mxGeometry x="1360" y="-376" width="100" height="60" as="geometry"/>
                </mxCell>
                <mxCell id="467" value="S1" style="rounded=1;whiteSpace=wrap;html=1;strokeWidth=3;fontSize=25;fontStyle=1;fillColor=#6d8764;strokeColor=none;fontColor=#ffffff;" parent="1" vertex="1">
                    <mxGeometry x="901" y="-929" width="60" height="60" as="geometry"/>
                </mxCell>
                <mxCell id="468" value="S2" style="rounded=1;whiteSpace=wrap;html=1;strokeWidth=3;fontSize=25;fontStyle=1;fillColor=#6d8764;strokeColor=none;fontColor=#ffffff;" parent="1" vertex="1">
                    <mxGeometry x="1021" y="-929" width="60" height="60" as="geometry"/>
                </mxCell>
                <mxCell id="469" value="S3" style="rounded=1;whiteSpace=wrap;html=1;strokeWidth=3;fontSize=25;fontStyle=1;fillColor=#6d8764;strokeColor=none;fontColor=#ffffff;" parent="1" vertex="1">
                    <mxGeometry x="1141" y="-929" width="60" height="60" as="geometry"/>
                </mxCell>
                <mxCell id="470" value="S4" style="rounded=1;whiteSpace=wrap;html=1;strokeWidth=3;fontSize=25;fontStyle=1;fillColor=#6d8764;strokeColor=none;fontColor=#ffffff;" parent="1" vertex="1">
                    <mxGeometry x="1260" y="-929" width="60" height="60" as="geometry"/>
                </mxCell>
                <mxCell id="471" value="S5" style="rounded=1;whiteSpace=wrap;html=1;strokeWidth=3;fontSize=25;fontStyle=1;fillColor=#6d8764;strokeColor=none;fontColor=#ffffff;" parent="1" vertex="1">
                    <mxGeometry x="1380" y="-929" width="60" height="60" as="geometry"/>
                </mxCell>
                <mxCell id="472" value="&lt;span style=&quot;color: rgb(0, 0, 0); font-size: 24px;&quot;&gt;↖️&lt;/span&gt;" style="rounded=1;whiteSpace=wrap;html=1;strokeWidth=3;fillColor=#d5e8d4;strokeColor=none;" parent="1" vertex="1">
                    <mxGeometry x="780" y="-837" width="60" height="60" as="geometry"/>
                </mxCell>
                <mxCell id="473" value="&lt;span style=&quot;color: rgb(0, 0, 0); font-size: 24px;&quot;&gt;⬅️&lt;/span&gt;" style="rounded=1;whiteSpace=wrap;html=1;strokeWidth=3;fillColor=#d5e8d4;strokeColor=none;" parent="1" vertex="1">
                    <mxGeometry x="780" y="-757" width="60" height="60" as="geometry"/>
                </mxCell>
                <mxCell id="474" value="&lt;span style=&quot;color: rgb(0, 0, 0); font-size: 24px;&quot;&gt;↖️&lt;/span&gt;" style="rounded=1;whiteSpace=wrap;html=1;strokeWidth=3;fillColor=#d5e8d4;strokeColor=none;" parent="1" vertex="1">
                    <mxGeometry x="780" y="-681" width="60" height="60" as="geometry"/>
                </mxCell>
                <mxCell id="475" value="&lt;span style=&quot;color: rgb(0, 0, 0); font-size: 24px;&quot;&gt;⬆️&lt;/span&gt;" style="rounded=1;whiteSpace=wrap;html=1;strokeWidth=3;fillColor=#d5e8d4;strokeColor=none;" parent="1" vertex="1">
                    <mxGeometry x="780" y="-605" width="60" height="60" as="geometry"/>
                </mxCell>
                <mxCell id="476" value="&lt;span style=&quot;color: rgb(0, 0, 0); font-size: 24px;&quot;&gt;↗️&lt;/span&gt;" style="rounded=1;whiteSpace=wrap;html=1;strokeWidth=3;fillColor=#d5e8d4;strokeColor=none;" parent="1" vertex="1">
                    <mxGeometry x="780" y="-529" width="60" height="60" as="geometry"/>
                </mxCell>
                <mxCell id="477" value="&lt;span style=&quot;color: rgb(0, 0, 0); font-size: 24px;&quot;&gt;↗️&lt;/span&gt;" style="rounded=1;whiteSpace=wrap;html=1;strokeWidth=3;fillColor=#d5e8d4;strokeColor=none;" parent="1" vertex="1">
                    <mxGeometry x="780" y="-453" width="60" height="60" as="geometry"/>
                </mxCell>
                <mxCell id="478" value="&lt;span style=&quot;color: rgb(0, 0, 0); font-size: 24px;&quot;&gt;↖️&lt;/span&gt;" style="rounded=1;whiteSpace=wrap;html=1;strokeWidth=3;fillColor=#d5e8d4;strokeColor=none;" parent="1" vertex="1">
                    <mxGeometry x="780" y="-376" width="60" height="60" as="geometry"/>
                </mxCell>
                <mxCell id="497" value="&lt;span&gt;TABEL LOGIKA LINE FOLLOWER DENGAN 5 SENSOR&lt;/span&gt;" style="rounded=1;whiteSpace=wrap;html=1;strokeWidth=3;fillColor=#d5e8d4;strokeColor=none;arcSize=14;fontSize=34;fontStyle=1" parent="1" vertex="1">
                    <mxGeometry x="780" y="-1070" width="670" height="120" as="geometry"/>
                </mxCell>
            </root>
        </mxGraphModel>
    </diagram>
</mxfile>